/* XPM */
static char *f0bd8e96feb646bfcb9259a2ccd0a09aarLcuYCjCDJ4LPxC[] = {
/* columns rows colors chars-per-pixel */
"40 40 8 1 ",
"  c #422433",
". c #29410A",
"X c #59C135",
"o c #FFD541",
"O c #FFE27A",
"+ c #F2838B",
"@ c #FFEBA2",
"# c white",
/* pixels */
"........................................",
"........................................",
".................................+.+....",
"X.X.............................+++++...",
".X...............................+++....",
"..................................+.....",
"........    .................   ........",
"....... @@@@ ............... OOO .......",
"....... +ooo@ ............. Ooo+ .......",
"....... +oooo@ ........... Oooo+ .......",
"...... ++++ooo@           Ooo++++ ......",
"...... ++++oooo@@@@#OOOOOOooo++++ ......",
"...... ++++oooooooo#ooooooooo++++ ......",
"...... +ooooooooooo#oooooooooooo+ ......",
"...... oooooooooooo#ooooooooooooo ......",
"..... ooooooooooooo#oooooooooooooo .....",
"..... ooooooooooooo#oooooooooooooo .....",
"..... @oooooooooo#####ooooooooooo@ .....",
"..... @oooooooooo#####oooooooooooO .....",
".....  oooooooooo#####ooooooooooo  .....",
"..... ooooooooooo#####oooooooooooo .....",
"..... ooooooooooo#####oooooooooooo .....",
".....  ooooo   #########   oooooo  .....",
"..... oooooo   #########   ooooooo .....",
"..... oooooo   #### ####   ooooooo .....",
"..... ooo+++###### + ######+++oooo .....",
".....   +++++######+######+++++    .....",
"......  +++++#############+++++  .......",
"......   ++++#############++++   .......",
"........    ###############    .........",
"...........                 ............",
"........................................",
"........................................",
"...+.+.............................X.X..",
"..+++++.............................X...",
"...+++..................................",
"....+...................................",
"........................................",
"........................................",
"........................................"
};
