/* XPM */
static char *ee47cb6247854b26970dd5d968154020Mr8U20JlEnUg2OhQ[] = {
/* columns rows colors chars-per-pixel */
"40 40 10 1 ",
"  c #29410A",
". c #4D7422",
"X c #A84E08",
"o c #B58F1D",
"O c #FF8F00",
"+ c #FFA000",
"@ c #FFC107",
"# c #FFD54F",
"$ c #FFE082",
"% c white",
/* pixels */
"                                  +     ",
"                                 +%+    ",
" . .            XXXXXXXXX       +@%@+   ",
"  .          XXX%%%%%$$$$XXX  ++@@%@@++ ",
"           XX%%%$$$$$$$$$$$$X+%%%%%%%%%+",
"          X%%$$$$$$$$$$$$$$$$$++@@%@@++ ",
"         X%$$$$$$+++++++$$$$$$$X+@%@+   ",
"        X%$$$$$++####$$$++$$$$$$X+%+    ",
"       X%$$$$++$$####$$$$$++$$$$$X+     ",
"      X%$$$$+$$$$$####$$$$$$+$$$$$X     ",
"     X%$$$$+$$$$$$$#####$$$$$+$$$$$X    ",
"    X%$$$$+$$$$$$$$######$$$$$+$$$$$X   ",
"    X%$$$$+$$$o$$$$$######o$$$+$$$$$X   ",
"   X%$$$$+$$$o%o$$$$$####o%o$$$+$$$$$X  ",
"   X%$$$$+#$$o%oo$$$$$##oo%o$$$+$$$$$X  ",
"   X%$$$+###$o%%%ooooooo%%%o$$$$+$$$$X  ",
"  X%$$$$+###o%$$$$$$$$$$$$$$o$$$+$$$$$X ",
"  X%$$$$+###o$$$$$$$$$$$$$$$o#$$+$$$$$X ",
"  X%$$$$+###o$$$o$$$$$$$o$$$o##$+$$$$$X ",
"  X%$$$$+###o$$$o$o$$$o$o$$$o###+$$$$$X ",
"  X$$$$$+###o$$$$$$ooo$$$$$$o###+$$$$$X ",
"  X$$$$$+$$##o$$$$$$$$$$$$$o####+$$$$$X ",
"  X$$$$$$+$$#o$$$$$$$$$$$$$o###+$$$$$$X ",
"  X$$$$$$+$$$#ooooooooooooo$###+$$$$$$X ",
"  X$$$$$$$+$$######$$$$$$$$$$#+$$$$$$$X ",
"   X$$$$$$+$$$######$$$$$$$$$$+$$$$$$X  ",
"   XOO$$$$$+$$$######$$$$$$$$+$$$$$OOX  ",
"   XOO+$$$$$+$$$#####$$$$$$$+$$$$$OOOX  ",
"    X+%+$$$$%++$######$$$$++%$$$$OOOX   ",
"    X+%+$$$$$%%++######$++%%$$$$$OOOX   ",
"    ++%++$$$$$$%%+++++++%%$$$$$$OOOX    ",
"   +%%%%%+O$$$$$$%%%%%%%$$$$$$OOOOX     ",
" +++%%%%%+++O$$$$$$$$$$$$$$$OOOOOX      ",
"+%%%%%%%%%%%+OO$$$$$$$$$$$OOOOOOX       ",
" +++%%%%%+++OOOOO$$$$$$$OOOOOOOX        ",
"   +%%%%%+XOOOOOOOOOOOOOOOOOOOX     . . ",
"    ++%++  XXOOOOOOOOOOOOOOOXX       .  ",
"     +%+     XXXOOOOOOOOOXXX            ",
"     +%+        XXXXXXXXX               ",
"      +                                 "
};
