/* XPM */
static char *_a66001b11524bdfbae20c69aa9594bcjmHCWycuU4X8NfjQ[] = {
/* columns rows colors chars-per-pixel */
"40 40 10 1 ",
"  c #29410A",
". c #4D7422",
"X c #649134",
"o c #A3889C",
"O c #9597BA",
"+ c #FFF7D9",
"@ c #EAC3E0",
"# c #E3D7EC",
"$ c #EBD1E8",
"% c #EBE3F2",
/* pixels */
"        OOOOOOOOOOOOOOOOOOOOOOO         ",
"        O@@@@######%#%########O         ",
"        O@@@@#################O X X     ",
"        O@@@@$$$$$$$$$$$$$####O  X      ",
"        O@@@@$@OOO@$@OOO@$####O         ",
"        O@@@@$O$$$O$O$$$O$####O         ",
"   . .  O@@@@$O$$$O$O$$$O$####O         ",
"    .   O@@@@$O$$$O$O$$$O$##%#O         ",
"        O@@@@$O$$$O$O$$$O$##%#O         ",
"        O@@@@$O$$$O$O$$$O$#%%#O         ",
"        O@@@@$O$$$O$O$$$O$####O         ",
"        O@@@@$O$$$O$O$$$O$####O         ",
"        Oo@@@$O$$$O$O$$$O$####O         ",
"        O@@@@$O$$$O$O$$$O$####O         ",
"        Ooo@@$O$$$O$O$$$O$#%%#O         ",
"        O@@@@$O$$$O$O$$$O$%###O         ",
"        O@@@@$O$$$O$O$$$O$###OO         ",
"        O@@@@$O$$$O$O$$$O$###OO         ",
"        O@@@@$O$$$O$O$$$O$###OO         ",
"        O@@@@$@OOO@$@OOO@$###OO         ",
"        O@@@@$$$$$$$$$$$$$###++         ",
"        O@@@@$$$$$$$$$$$$$###++         ",
"        O@@@@$@OOO@$@OOO@$###OO         ",
"        O@@@@$O$$$O$O$$$O$###OO         ",
"        O@@@@$O$$$O$O$$$O$###OO         ",
"        O@@@@$O$$$O$O$$$O$####O         ",
"        O@@@@$O$$$O$O$$$O$#%%#O         ",
"        O@@@@$O$$$O$O$$$O$####O         ",
"        O@@@@$O$$$O$O$$$O$####O         ",
"        O@@@@$O$$$O$O$$$O$####O         ",
"        O@@@@$O$$$O$O$$$O$####O         ",
"        O@@@@$O$$$O$O$$$O$####O    X X  ",
"        O@@@@$O$$$O$O$$$O$####O     X   ",
" X X    O@@@@$@OOO@$@OOO@$####O         ",
"  X     O@@@@$$$$$$$$$$$$$###$O         ",
"        O@@@@@@@@@@@@@@@@@@@@@O         ",
"        O@@@@@@@@@@@@@@@@@@@@@O         ",
"        O@@@@@@@@@@@@@@@@@@@@@O         ",
"        Ooo@@@@@@@@@@@@@@@@@@@O         ",
"        OOOOOOOOOOOOOOOOOOOOOOO         "
};
