/* XPM */
static char *_887d19c7bc9413cf4d4c678d1da6d433kzfM1z2tA2t9u6t[] = {
/* columns rows colors chars-per-pixel */
"40 40 21 1 ",
"  c #E5DAB5",
". c #B7ABCE",
"X c #EEA4CA",
"o c #B5D4E5",
"O c #CCC1D4",
"+ c #FFF3C9",
"@ c #FFF7D9",
"# c #FFF8DF",
"$ c #E3D7EC",
"% c #F1D2FD",
"& c #F2D7FD",
"* c #F3DBFD",
"= c #F4DBFD",
"- c #F4DFFD",
"; c #C9ECFF",
": c #D9F2FF",
"> c #DDF3FF",
", c #EBE3F2",
"< c #F6E3FE",
"1 c #FFFDF4",
"2 c #F4FBFF",
/* pixels */
"........................................",
";;;;;;;;o.%%%%%%%%%%%%%%%%%%X.;;;;;;;;;;",
";;;;;;;;o.%=%%%%%%%-%%%%&%%=X.;;;;;;;;;;",
";;;;>;;;o.%%%%-%%%%%%%&<%%%%X.;;;;;;;;;;",
";;;;;;;;o.%%%-%%%%%%%%%%%%%%X.;;;;;:;;;;",
";:;;;;;;o.%%%%*%%%%%%-%%%&%%X.;;:;;;;;;;",
";;;;;;o;o.%%%%X%%%%%%-%%X%%%X.;;;o;;;;;;",
";;o;;o;;o.%%%%X%%%%X%%%XX%%%X.;;;o;;;;o;",
"ooooooooo.XXXXXXXXXXXXXXXXXXX.oooooooooo",
"........................................",
"$$$$$$$$$$$$$$$$$$O.+++++++++++++++++++ ",
"$$$$$$$$$$$$$$$$$$O.+++++++++++++++++++ ",
"$$$$$$$$$$$$$$$$$$O.+++@+++++++++++++++ ",
"$$$$$$$$$$$$$$$$$$O.+++++1+@+++++1+++++ ",
"$$$$$$$$$$$$$$$$$$O.++++++++++++++++#++ ",
"$$$$$$$$$$$$$$$$$$O.+++++++++++++++++++ ",
"$$$$$$$$$$O$$$$$$$O.+++++++++++++++++ + ",
"$$$$$$$$$$O$$$$$$$O.++++++++++++++++ ++ ",
"OOOOOOOOOOOOOOOOOOO.                    ",
"........................................",
"%%%%%%%%X.;;;;;;;;;;;;;;;;;;o.%%%%%%%%%%",
"&%%%%%<<X.;;;;;;;;;;;;;;;;;;o.%<%%%%%&<%",
"%<%%%%%%X.;;;;;;;;;;;;;;;;;;o.%%%%%%%%%%",
"%%%%%%&%X.;;2;;;;;;;;;;;;;;;o.%%%<%%%%<%",
"&%%%%%%%X.;;;;;;;;;;;;:;;;;;o.%&%%%%%<<%",
"%%%%&%<%X.;;;;;;;;;;;;;;;;;;o.%%%%&%%%%<",
"%%%%X%%%X.;;;;;o;;;;;;;;:o;;o.%%%%X%%%&%",
"%%%XX%%%X.;;;;;o;;;;;;;;;;o;o.%%%%X%%%X%",
"XXXXXXXXX.ooooooooooooooooooo.XXXXXXXXXX",
"........................................",
"++++++++++++++++++ .$$$$$$$$$$$$$$$$$$$O",
"+++1+++++++++1++++ .$$$$$$$$$$$$$$$$$$$O",
"++++++++++++++++1+ .$$$$$$$$$$$$$$$$$$$O",
"+++++++@++++++++1+ .$$$$$$$$$$$$$,$$$$$O",
"+++++++1++++++++++ .$$$$$$$$$$$$$$$$$$$O",
"+@++++++++++++++++ .$$$$,$$$$$$$$$$$$,$O",
"+ ++++++++++++++++ .$$$$$O$$$$$$$$$$O$$O",
"+ ++++++++++++++++ .$$$$$$O$$$$$$$$$O$$O",
"                   .OOOOOOOOOOOOOOOOOOOO",
"........................................"
};
